<svg width="469" height="700" viewBox="0 0 469 700" fill="none" xmlns="http://www.w3.org/2000/svg">
<path d="M113.0056561085973 546.5661764705883H57.82918552036199V204.36595022624442H0.0V153.96436651583713H113.0056561085973Z" fill="#171A20"/>
<path d="M469.0 420.2969457013575Q469.0 445.23246606334845 461.3071266968326 469.37217194570144Q453.6142533936652 493.51187782805437 437.697963800905 512.3461538461539Q421.7816742081448 531.1804298642535 397.6419683257918 542.5871040723982Q373.5022624434389 553.993778280543 341.13914027149326 553.993778280543Q307.1843891402715 553.993778280543 283.3099547511312 541.2607466063348Q259.43552036199094 528.5277149321267 244.31504524886878 508.36708144796387Q229.19457013574663 488.20644796380094 222.03223981900453 463.80147058823536Q214.86990950226246 439.3964932126697 214.86990950226246 416.0526018099548V279.17251131221724Q214.86990950226246 242.03450226244348 227.86821266968326 216.30316742081453Q240.8665158371041 190.57183257918558 260.23133484162895 175.18608597285075Q279.59615384615387 159.8003393665159 302.14423076923083 152.9032805429865Q324.69230769230774 146.00622171945707 343.2613122171946 146.00622171945707Q365.0135746606335 146.00622171945707 387.5616515837104 154.22963800904984Q410.10972850678735 162.4530542986426 428.14819004524884 178.63461538461544Q446.1866515837104 194.8161764705883 457.5933257918552 219.2211538461539Q469.0 243.6261312217195 469.0 275.4587104072399ZM413.82352941176475 275.4587104072399Q413.82352941176475 249.46210407239823 405.600113122172 234.0763574660634Q397.3766968325792 218.69061085972857 385.9700226244344 210.20192307692312Q374.5633484162896 201.71323529411768 362.62613122171945 199.060520361991Q350.68891402714934 196.4078054298643 342.7307692307693 196.4078054298643Q332.11990950226243 196.4078054298643 319.65214932126696 199.856334841629Q307.1843891402715 203.3048642533937 296.04298642533934 212.32409502262448Q284.90158371040724 221.34332579185525 277.4739819004525 236.46380090497743Q270.04638009049773 251.58427601809962 270.04638009049773 275.4587104072399V420.2969457013575Q270.04638009049773 450.5378959276019 280.1266968325792 467.5152714932127Q290.20701357466066 484.4926470588236 302.9400452488688 492.45079185520365Q315.6730769230769 500.40893665158376 327.6102941176471 502.0005656108598Q339.54751131221724 503.5921945701358 343.2613122171946 503.5921945701358Q359.7081447963801 503.5921945701358 372.9717194570136 496.6951357466064Q386.2352941176471 489.79807692307696 396.3156108597285 478.65667420814486Q409.579185520362 463.27092760181 411.70135746606337 449.47680995475116Q413.82352941176475 435.6826923076924 413.82352941176475 420.2969457013575Z" fill="#171A20"/>
</svg>
