<svg width="1340" height="330" viewBox="0 0 1340 330" fill="none" xmlns="http://www.w3.org/2000/svg">
<path d="M0 324.399H34.7278L81.1762 217.559H230.506L276.954 324.399H311.682L174.073 5.60053H138.477L0 324.399ZM93.765 188.694L156.275 42.6501L217.917 188.694H93.765Z" fill="#F5F7FA"/>
<path d="M331.318 324.399H419.44C524.491 324.399 535.343 259.347 535.343 234.36C535.343 201.188 519.282 165 479.345 153.368C496.275 143.029 517.98 124.073 517.98 89.6084C517.98 9.47782 445.051 5.60053 411.626 5.60053H331.318V324.399ZM363.441 295.535V171.031H419.44C451.129 171.031 502.786 176.632 502.786 234.791C502.786 290.366 449.392 295.535 419.44 295.535H363.441ZM363.441 142.167V34.4647H411.626C435.067 34.4647 485.856 35.7572 485.856 88.3159C485.856 137.428 438.54 142.167 411.626 142.167H363.441Z" fill="#F5F7FA"/>
<path d="M719.496 0C623.994 0 549.33 70.2219 549.33 165.862C549.33 261.501 624.862 330 719.496 330C814.997 330 889.662 258.916 889.662 163.277C889.662 68.4987 815.431 0 719.496 0ZM719.93 301.136C642.66 301.136 581.453 245.992 581.453 165.862C581.453 86.5927 641.358 28.8642 719.93 28.8642C797.199 28.8642 857.538 84.0078 857.538 163.277C857.538 242.976 798.067 301.136 719.93 301.136Z" fill="#F5F7FA"/>
<path d="M923.148 5.60053V199.465C923.148 292.52 969.162 330 1033.41 330C1097.66 330 1143.67 292.52 1143.67 199.465V5.60053H1111.55V199.465C1111.55 221.436 1111.11 301.136 1033.41 301.136C955.705 301.136 955.271 221.436 955.271 199.465V5.60053H923.148Z" fill="#F5F7FA"/>
<path d="M1234.51 324.399H1266.64V34.4647H1340V5.60053H1161.15V34.4647H1234.51V324.399Z" fill="#F5F7FA"/>
</svg>
