<svg xmlns="http://www.w3.org/2000/svg" width="750" height="186" viewBox="0 0 750 186" fill="none"><path fill="#DDEFFD" d="M112.54 130.75 83.87 92.69H83.67V130.75H72.65V55.25H83.67V92.69H83.87L112.54 55.25H126.11L96.63 92.69L126.11 130.75ZM143.66 130.75V55.25H154.68V130.75ZM227.22 130.75 189.88 72.39H189.67V130.75H178.65V55.25H190.69L227.42 112.69H227.63V55.25H238.64V130.75ZM262.62 55.25H287.11Q293.02 55.25 297.77 56.32Q302.51 57.39 306.29 59.23Q310.06 61.07 312.92 63.62Q315.78 66.17 317.92 69.13Q322.00 74.94 323.83 81.32Q325.67 87.69 325.67 93.20Q325.67 96.98 325.01 100.86Q324.35 104.73 323.07 108.25Q321.79 111.77 320.06 114.78Q318.33 117.79 316.18 119.83Q309.65 126.26 302.15 128.50Q294.66 130.75 286.70 130.75H262.62ZM273.64 120.65H286.80Q291.80 120.65 296.75 119.27Q301.70 117.89 305.67 114.73Q309.65 111.57 312.15 106.31Q314.65 101.06 314.65 93.20Q314.65 88.92 313.22 84.02Q311.80 79.12 308.53 74.99Q305.27 70.86 300.01 68.11Q294.76 65.35 287.00 65.35H273.64ZM351.99 108.41Q351.99 109.32 352.35 111.62Q352.71 113.91 353.93 116.21Q355.16 118.51 357.60 120.29Q360.05 122.08 364.24 122.08Q369.44 122.08 372.91 118.76Q376.38 115.45 376.38 109.32Q376.38 106.16 375.20 104.12Q374.03 102.08 372.25 100.75Q370.46 99.43 368.32 98.61Q366.17 97.80 364.24 96.98Q360.36 95.55 357.91 94.48Q355.46 93.41 353.73 92.49Q351.99 91.57 350.77 90.65Q349.55 89.74 348.22 88.51Q345.57 85.96 344.34 82.13Q343.12 78.31 343.12 74.33Q343.12 71.06 344.39 67.44Q345.67 63.82 348.32 60.81Q350.97 57.80 354.90 55.81Q358.83 53.82 364.24 53.82Q368.93 53.82 372.91 55.30Q376.89 56.78 379.74 59.54Q382.60 62.29 384.23 66.17Q385.87 70.04 385.87 74.84H374.85Q374.85 71.68 373.83 69.59Q372.81 67.49 371.23 66.22Q369.64 64.94 367.76 64.43Q365.87 63.92 364.24 63.92Q361.79 63.92 359.90 64.89Q358.01 65.86 356.74 67.39Q355.46 68.92 354.80 70.76Q354.14 72.60 354.14 74.23Q354.14 76.88 355.26 78.72Q356.38 80.55 357.96 81.73Q359.54 82.90 361.28 83.56Q363.01 84.23 364.24 84.63Q367.81 85.96 371.89 87.44Q375.97 88.92 379.39 91.52Q382.80 94.12 385.10 98.31Q387.40 102.49 387.40 109.32Q387.40 114.22 385.71 118.40Q384.03 122.59 381.02 125.65Q378.01 128.71 373.72 130.44Q369.44 132.18 364.24 132.18Q360.36 132.18 356.23 130.85Q352.10 129.52 348.73 126.62Q345.36 123.71 343.17 119.22Q340.97 114.73 340.97 108.41ZM406.37 55.25H425.96Q431.27 55.25 435.09 56.42Q438.92 57.60 441.52 59.49Q444.12 61.37 445.70 63.72Q447.28 66.07 448.15 68.41Q449.02 70.76 449.27 72.80Q449.53 74.84 449.53 76.17Q449.53 79.33 448.81 81.62Q448.10 83.92 447.08 85.60Q446.06 87.29 444.89 88.46Q443.71 89.63 442.79 90.45Q444.02 91.16 445.91 92.44Q447.79 93.71 449.58 95.91Q451.36 98.10 452.69 101.26Q454.02 104.43 454.02 108.81Q454.02 111.77 453.00 115.55Q451.98 119.32 449.22 122.69Q446.47 126.06 441.57 128.40Q436.67 130.75 428.92 130.75H406.37ZM417.39 120.65H429.33Q433.51 120.65 436.16 119.32Q438.82 118.00 440.35 116.16Q441.88 114.32 442.44 112.28Q443.00 110.24 443.00 108.81Q443.00 106.77 442.23 104.83Q441.47 102.90 440.35 101.37Q439.12 99.73 437.54 98.76Q435.96 97.80 434.33 97.39Q432.69 96.98 431.06 96.88Q429.43 96.77 428.00 96.77H417.39ZM417.39 86.67H426.37Q430.25 86.67 432.64 85.65Q435.04 84.63 436.32 83.05Q437.59 81.47 438.05 79.63Q438.51 77.80 438.51 76.06Q438.51 72.09 436.88 69.89Q435.25 67.70 433.05 66.68Q430.86 65.66 428.77 65.50Q426.68 65.35 425.76 65.35H417.39ZM474.22 130.75V55.25H514.93V65.35H485.24V87.59H514.93V97.69H485.24V120.65H514.93V130.75ZM573.08 130.75 548.19 95.75H547.98V130.75H536.96V55.25H560.33Q568.28 55.25 572.88 56.99Q577.47 58.72 580.43 61.58Q584.00 65.05 585.68 69.79Q587.36 74.53 587.36 79.43Q587.36 86.98 584.66 91.52Q581.96 96.06 578.38 98.51Q574.81 100.96 571.19 101.77Q567.57 102.59 565.73 102.59L586.85 130.75ZM547.98 94.22H555.53Q556.65 94.22 558.64 94.12Q560.63 94.02 562.93 93.61Q565.22 93.20 567.62 92.29Q570.02 91.37 571.96 89.74Q573.90 88.10 575.12 85.60Q576.34 83.10 576.34 79.43Q576.34 77.08 575.48 74.58Q574.61 72.09 572.62 70.04Q570.63 68.00 567.47 66.68Q564.31 65.35 559.61 65.35H547.98ZM663.06 74.23Q661.84 72.90 660.06 71.17Q658.27 69.43 655.72 67.80Q653.17 66.17 649.85 65.05Q646.54 63.92 642.46 63.92Q636.54 63.92 631.44 66.27Q626.34 68.62 622.56 72.65Q618.79 76.68 616.64 81.98Q614.50 87.29 614.50 93.20Q614.50 99.43 616.90 104.73Q619.30 110.04 623.17 113.86Q627.05 117.69 632.10 119.88Q637.15 122.08 642.56 122.08Q643.37 122.08 646.54 121.72Q649.70 121.36 653.68 119.58Q657.66 117.79 661.74 114.02Q665.82 110.24 668.57 103.30H633.38V93.20H681.12Q680.92 102.69 677.40 109.99Q673.88 117.28 668.37 122.18Q662.86 127.08 655.97 129.63Q649.09 132.18 642.15 132.18Q633.89 132.18 626.80 129.07Q619.70 125.95 614.55 120.60Q609.40 115.24 606.44 108.20Q603.48 101.16 603.48 93.20Q603.48 85.14 606.44 77.95Q609.40 70.76 614.60 65.40Q619.81 60.05 626.85 56.93Q633.89 53.82 642.05 53.82Q646.84 53.82 651.74 55.10Q656.64 56.37 661.08 58.92Q665.51 61.47 669.34 65.30Q673.17 69.13 675.92 74.23Z"/></svg>
